<?xml version="1.0" standalone="no"?>
<!DOCTYPE svg PUBLIC "-//W3C//DTD SVG 20010904//EN"
 "http://www.w3.org/TR/2001/REC-SVG-20010904/DTD/svg10.dtd">
<svg version="1.0" xmlns="http://www.w3.org/2000/svg"
 width="512.000000pt" height="512.000000pt" viewBox="0 0 512.000000 512.000000"
 preserveAspectRatio="xMidYMid meet">
<metadata>
Created by potrace 1.14, written by Peter Selinger 2001-2017
</metadata>
<g transform="translate(0.000000,512.000000) scale(0.100000,-0.100000)"
fill="#000000" stroke="none">
<path d="M2178 4753 c-67 -93 -160 -217 -205 -278 -67 -89 -83 -117 -83 -145
l0 -36 178 1 c97 1 180 0 184 -2 7 -4 -110 -182 -179 -272 -18 -25 -100 -115
-182 -200 -82 -86 -170 -178 -196 -206 -51 -55 -331 -348 -465 -487 l-85 -88
-58 35 c-69 42 -85 43 -137 10 -22 -14 -42 -25 -44 -25 -3 0 -38 -20 -78 -44
-40 -23 -200 -116 -356 -206 -156 -90 -279 -167 -275 -171 8 -8 735 -430 785
-456 34 -18 25 -22 373 182 149 87 286 167 305 178 143 80 172 101 157 111 -8
6 -94 56 -191 111 -96 55 -176 103 -176 106 0 7 26 35 174 190 220 230 437
458 511 536 60 63 86 84 102 81 23 -3 41 23 -228 -340 -112 -151 -128 -180
-121 -210 3 -17 23 -18 237 -18 l233 0 30 38 c16 20 91 129 167 242 76 113
143 211 149 218 9 9 28 -9 86 -84 41 -53 89 -113 105 -133 125 -153 201 -275
485 -771 172 -300 326 -570 343 -600 17 -30 48 -84 69 -119 21 -34 38 -65 38
-67 0 -2 14 -27 31 -56 34 -57 57 -97 97 -167 14 -25 38 -67 54 -94 28 -48 28
-51 14 -82 -22 -46 -21 -55 20 -127 20 -34 46 -81 58 -103 29 -52 253 -451
275 -490 10 -16 30 -52 45 -80 16 -27 44 -78 62 -112 19 -33 41 -67 50 -73 10
-9 80 -13 255 -14 133 -1 243 2 245 6 2 3 -19 46 -47 95 -28 48 -61 106 -74
128 -12 22 -109 191 -215 375 -106 184 -201 351 -212 370 -110 193 -231 401
-238 405 -4 3 -14 -9 -23 -26 l-15 -32 -15 24 c-19 31 -97 166 -152 264 -13
22 -56 96 -96 165 -39 69 -79 139 -88 155 -18 35 -137 243 -152 265 -5 8 -59
103 -120 210 -61 107 -120 210 -130 228 -11 18 -19 35 -19 37 0 3 23 5 50 5
49 0 50 1 50 29 0 32 -11 50 -223 346 -75 104 -134 192 -131 194 2 2 83 4 179
4 l175 -1 0 32 c0 23 -40 92 -161 276 -89 135 -169 257 -180 272 -10 15 -15
29 -11 31 4 3 75 5 157 5 213 0 195 -3 195 31 0 21 -46 94 -176 277 -97 137
-188 264 -201 282 l-24 32 -419 0 -418 0 -124 -167z m717 -187 c97 -132 179
-245 182 -252 3 -9 -82 -11 -351 -11 l-354 0 21 33 c62 96 321 474 322 472 2
-2 82 -111 180 -242z m-131 -438 c328 -439 327 -438 298 -439 -37 0 -653 -1
-675 0 -14 1 0 28 67 126 47 69 125 181 172 250 47 69 87 125 88 125 2 0 24
-28 50 -62z"/>
<path d="M145 2125 c0 -250 2 -455 5 -455 3 0 25 12 50 26 25 14 63 36 85 49
22 12 123 71 225 130 102 60 237 137 300 173 63 36 117 67 119 68 5 4 -41 43
-51 44 -3 0 -116 64 -249 141 -134 78 -264 153 -289 167 -25 14 -57 33 -72 43
-14 11 -29 19 -32 19 -4 0 -24 11 -46 25 -22 14 -41 25 -42 25 -2 0 -3 -205
-3 -455z"/>
<path d="M1478 2352 c-214 -125 -388 -229 -388 -232 0 -3 10 -10 23 -16 12 -5
183 -103 379 -217 197 -114 363 -210 370 -212 11 -4 13 85 13 450 0 250 -2
455 -5 454 -3 0 -179 -103 -392 -227z"/>
<path d="M680 1889 c-168 -99 -314 -184 -325 -189 -11 -5 -42 -23 -70 -40 -27
-17 -60 -36 -73 -42 -12 -6 -21 -16 -19 -21 2 -8 155 -99 435 -259 18 -10 102
-58 185 -107 84 -48 162 -93 174 -99 25 -14 28 -13 348 173 121 70 238 138
260 150 22 13 86 50 143 83 l102 59 -86 52 c-47 28 -88 51 -91 51 -4 0 -14 6
-22 14 -9 7 -41 27 -71 43 -30 17 -165 94 -299 172 -134 77 -254 141 -265 140
-12 -1 -158 -82 -326 -180z"/>
<path d="M3117 1799 c-22 -35 -152 -262 -160 -279 -4 -8 -144 -253 -312 -544
-167 -292 -302 -532 -300 -534 4 -4 394 -6 457 -3 21 1 35 23 160 246 52 94
104 186 115 205 11 19 34 60 50 90 17 30 76 136 132 234 56 99 101 188 101
198 0 11 -11 38 -23 61 -94 167 -190 333 -197 341 -4 4 -15 -2 -23 -15z"/>
<path d="M3609 1658 c-35 -62 -78 -142 -97 -178 l-35 -65 20 -40 c32 -65 174
-309 188 -324 11 -11 18 -6 39 35 15 27 30 56 36 64 55 88 122 210 127 232 4
21 -7 49 -49 120 -30 51 -77 132 -104 180 -27 49 -52 88 -56 88 -4 0 -35 -51
-69 -112z"/>
<path d="M3403 1293 c-7 -15 -22 -46 -35 -68 -13 -22 -55 -96 -93 -165 -39
-69 -74 -132 -80 -141 -5 -9 -22 -38 -37 -65 -14 -27 -72 -130 -127 -228 -56
-99 -97 -182 -92 -185 5 -3 98 -5 206 -5 153 1 200 5 210 15 10 11 137 228
256 437 11 18 19 42 19 53 0 11 -25 64 -56 117 -31 53 -70 123 -87 154 -17 32
-40 69 -51 83 l-21 26 -12 -28z"/>
<path d="M3929 1268 c-19 -36 -46 -84 -116 -205 -49 -87 -63 -118 -57 -135 13
-42 265 -473 282 -482 13 -7 227 -11 365 -7 l29 1 -25 43 c-25 43 -57 100
-111 198 -161 291 -342 609 -348 609 -4 0 -13 -10 -19 -22z"/>
<path d="M3573 642 l-113 -197 227 -3 c124 -1 228 0 231 2 2 3 -16 40 -41 83
-57 99 -74 129 -131 231 -26 45 -50 82 -54 82 -4 0 -58 -89 -119 -198z"/>
</g>
</svg>
